<?xml version="1.0" standalone="no"?>
<!DOCTYPE svg PUBLIC "-//W3C//DTD SVG 20010904//EN"
 "http://www.w3.org/TR/2001/REC-SVG-20010904/DTD/svg10.dtd">
<svg version="1.0" xmlns="http://www.w3.org/2000/svg"
 width="700.000000pt" height="700.000000pt" viewBox="0 0 700.000000 700.000000"
 preserveAspectRatio="xMidYMid meet">
<metadata>
Created by potrace 1.14, written by Peter Selinger 2001-2017
</metadata>
<g transform="translate(0.000000,700.000000) scale(0.100000,-0.100000)"
fill="#000000" stroke="none">
<path d="M3279 6996 c-2 -2 -43 -6 -90 -10 -47 -4 -95 -8 -105 -10 -10 -2 -46
-7 -79 -12 -33 -4 -62 -8 -65 -9 -3 0 -27 -4 -55 -9 -27 -4 -106 -21 -175 -37
-69 -17 -134 -32 -146 -35 -38 -7 -315 -104 -403 -140 -497 -206 -972 -552
-1328 -969 -206 -241 -406 -558 -527 -835 -21 -47 -41 -94 -46 -105 -107 -236
-209 -634 -248 -960 -9 -80 -9 -652 1 -740 72 -663 331 -1289 750 -1813 128
-161 367 -400 522 -523 114 -91 319 -239 331 -239 3 0 25 -14 49 -30 24 -17
47 -30 51 -30 4 0 15 -6 23 -14 27 -23 259 -139 390 -195 269 -116 598 -208
880 -247 25 -3 57 -8 71 -10 123 -19 555 -25 725 -10 417 36 833 150 1213 332
612 293 1119 753 1473 1337 192 317 358 728 425 1052 32 154 59 333 71 465 15
155 5 692 -12 720 -2 3 -6 30 -9 60 -3 30 -8 64 -10 75 -2 11 -11 61 -21 110
-78 417 -240 825 -478 1205 -58 92 -202 291 -251 348 -13 15 -43 50 -66 77
-114 135 -351 360 -475 451 -22 16 -46 35 -53 42 -18 17 -259 182 -266 182 -3
0 -24 13 -48 29 -63 42 -318 173 -433 221 -181 77 -457 167 -600 195 -121 24
-245 46 -316 55 -46 6 -100 13 -119 16 -39 5 -546 14 -551 10z m403 -634 c10
-2 18 -8 18 -13 0 -16 -107 -231 -158 -317 -36 -62 -51 -80 -59 -70 -37 48
-181 322 -197 375 -6 18 -2 22 21 25 43 6 354 6 375 0z m-672 -167 c61 -141
131 -272 211 -398 38 -60 69 -113 69 -119 0 -20 -150 -183 -268 -291 l-63 -58
-51 78 c-131 201 -311 425 -484 602 -117 120 -119 104 26 160 47 18 96 37 109
42 38 16 302 89 341 95 19 3 37 8 39 10 9 9 28 -23 71 -121z m1115 104 c50
-11 98 -22 108 -25 9 -2 25 -6 35 -8 83 -20 397 -138 397 -150 0 -3 -43 -49
-95 -103 -53 -54 -123 -129 -155 -168 -33 -38 -63 -72 -66 -75 -17 -13 -230
-304 -269 -367 -25 -40 -49 -72 -55 -73 -15 0 -302 295 -329 338 -5 8 15 48
55 110 85 132 269 495 269 530 0 15 -2 15 105 -9z m-1957 -451 c143 -145 170
-174 266 -293 96 -118 195 -254 247 -339 l43 -68 -25 -19 c-68 -53 -355 -219
-379 -219 -9 0 -145 113 -170 141 -3 3 -45 37 -95 76 -138 107 -306 222 -458
313 l-138 83 43 42 c67 65 185 165 271 228 85 63 257 177 267 177 3 0 61 -55
128 -122z m2947 22 c186 -126 450 -357 424 -372 -309 -180 -560 -361 -763
-550 -33 -32 -67 -58 -74 -58 -26 0 -216 103 -354 193 l-76 50 31 51 c125 205
321 450 523 654 l132 134 43 -28 c24 -15 76 -48 114 -74z m-1439 -638 l189
-189 -58 -123 c-116 -245 -209 -500 -276 -758 l-37 -143 -33 133 c-61 244
-165 533 -281 773 l-60 127 52 46 c71 62 277 271 295 299 9 13 16 23 18 23 1
0 87 -85 191 -188z m-2290 -20 c204 -117 430 -275 573 -400 l45 -39 -85 -26
c-154 -47 -324 -85 -464 -103 -27 -3 -59 -8 -70 -10 -31 -6 -243 -17 -307 -17
-32 1 -94 2 -138 2 l-80 1 17 43 c22 57 121 246 173 332 70 116 192 285 205
285 6 0 65 -31 131 -68z m4440 -40 c87 -125 175 -273 244 -413 33 -67 60 -125
60 -129 0 -18 -455 -14 -545 5 -11 2 -42 7 -68 10 -26 3 -71 10 -100 16 -29 5
-63 12 -77 14 -45 9 -64 13 -130 29 -36 9 -76 21 -90 26 -14 4 -37 11 -52 14
-16 4 -28 10 -28 14 0 8 108 100 205 173 126 97 493 330 515 329 3 -1 32 -40
66 -88z m-2894 -409 c64 -138 100 -227 154 -385 41 -120 97 -320 108 -381 3
-15 7 -35 10 -45 8 -27 37 -192 43 -242 2 -25 8 -59 13 -77 17 -66 -4 -37 -75
105 -158 315 -346 594 -599 888 l-36 42 85 47 c47 27 120 72 163 101 42 29 78
53 80 53 2 1 26 -47 54 -106z m1290 29 c51 -33 128 -78 171 -102 l78 -42 -23
-28 c-333 -403 -493 -651 -673 -1045 l-46 -100 6 75 c17 199 86 530 156 749
66 203 211 551 230 551 4 0 50 -26 101 -58z m-1937 -284 c10 -13 53 -62 94
-109 301 -341 557 -773 721 -1219 39 -104 111 -342 106 -347 -2 -3 -17 22 -32
54 -119 246 -345 559 -560 778 -262 266 -522 456 -844 619 -131 67 -144 76
-109 77 28 1 33 2 130 23 104 24 290 80 379 115 92 36 91 36 115 9z m2598 -34
c116 -40 327 -96 435 -115 l72 -13 -97 -49 c-143 -71 -312 -173 -443 -267
-398 -285 -737 -670 -955 -1088 -21 -40 -39 -71 -41 -69 -4 4 39 148 81 267
151 429 388 845 678 1190 78 93 158 180 164 180 2 0 50 -16 106 -36z m-4008
-209 c50 -9 131 -27 180 -40 50 -14 101 -27 115 -31 14 -3 34 -9 45 -14 11 -4
72 -27 135 -50 417 -153 843 -447 1132 -782 79 -91 135 -163 121 -155 -7 4
-43 28 -80 53 -94 62 -347 185 -469 227 -114 40 -348 92 -474 106 -137 15
-446 6 -585 -18 -104 -18 -289 -64 -349 -87 -18 -7 -18 -2 -12 132 6 138 11
197 20 264 3 19 8 53 11 75 3 22 8 51 11 65 6 24 9 42 18 93 2 12 9 42 16 67
6 25 16 62 21 83 9 33 14 38 32 34 12 -3 63 -13 112 -22z m5408 -102 c47 -207
62 -317 73 -537 l7 -139 -24 6 c-126 35 -283 69 -374 80 -141 18 -424 19 -540
1 -49 -8 -106 -16 -126 -19 -84 -11 -354 -88 -373 -106 -6 -5 -17 -9 -26 -9
-29 0 -295 -137 -392 -202 -54 -36 -98 -63 -98 -59 1 11 149 184 228 265 67
68 156 151 255 233 37 31 189 140 257 184 197 129 520 278 727 335 94 26 336
83 358 83 18 1 24 -13 48 -116z m-4733 -883 c25 -5 65 -11 90 -14 276 -33 608
-176 860 -370 121 -94 175 -145 263 -249 183 -215 308 -451 390 -737 35 -122
50 -272 50 -485 -1 -287 -30 -471 -107 -680 -23 -65 -27 -70 -53 -69 -22 2
-203 36 -248 48 -5 2 -23 6 -40 11 -94 24 -296 95 -405 142 -330 143 -620 341
-875 597 -154 156 -161 164 -253 286 -40 52 -76 100 -80 105 -23 29 -145 231
-184 305 -118 224 -234 553 -273 775 -2 17 -7 41 -10 55 -3 14 -8 45 -11 70
-3 25 -8 53 -10 63 -4 13 4 21 31 32 74 32 232 77 315 91 14 2 35 6 47 9 13 3
49 8 80 11 32 4 59 8 61 9 8 7 322 3 362 -5z m4340 0 c172 -24 200 -30 343
-72 127 -36 118 -14 81 -218 -3 -19 -7 -44 -9 -55 -7 -48 -67 -268 -98 -360
-160 -469 -441 -892 -800 -1207 -90 -79 -92 -80 -182 -149 -56 -44 -216 -151
-260 -175 -235 -129 -369 -191 -550 -252 -134 -45 -354 -101 -411 -105 -37 -2
-38 -1 -61 58 -87 219 -125 565 -99 920 23 327 186 701 426 979 43 50 154 159
199 196 23 19 53 43 64 54 57 48 232 154 341 206 168 80 372 146 519 167 23 3
65 9 92 13 69 9 338 9 405 0z"/>
</g>
</svg>
