<?xml version="1.0" encoding="utf-8"?>
<!-- Generator: Adobe Illustrator 23.1.0, SVG Export Plug-In . SVG Version: 6.00 Build 0)  -->
<svg version="1.1" id="Layer_1" xmlns="http://www.w3.org/2000/svg" xmlns:xlink="http://www.w3.org/1999/xlink" x="0px" y="0px"
	 width="18px" height="21px" viewBox="0 0 18 21" style="enable-background:new 0 0 18 21;" xml:space="preserve">
<path d="M17.6,14.5C17.6,14.5,17.6,14.5,17.6,14.5l-0.2-0.3c-1-1.2-1.7-2-1.7-5.5c0-3.2-1.3-5.3-4-6.4C11.4,0.9,10.3,0,9,0
	C7.7,0,6.6,0.9,6.2,2.3C3.6,3.4,2.3,5.5,2.3,8.7c0,3.5-0.6,4.3-1.7,5.5l-0.2,0.3C0,15-0.1,15.7,0.2,16.3c0.3,0.6,0.9,1,1.6,1h3.5
	c0,1,0.4,1.9,1.1,2.6C7.1,20.6,8,21,9,21c1,0,1.9-0.4,2.7-1.1c0.7-0.7,1.1-1.7,1.1-2.6h3.5c0.7,0,1.3-0.4,1.6-1
	C18.1,15.7,18.1,15,17.6,14.5z M10.6,18.8c-0.8,0.9-2.3,0.9-3.2,0c-0.4-0.4-0.7-1-0.7-1.6h4.5C11.3,17.8,11,18.4,10.6,18.8z
	 M16.3,15.8H12c0,0,0,0,0,0s0,0,0,0H6c0,0,0,0,0,0s0,0,0,0H1.8c-0.2,0-0.2-0.1-0.3-0.1c0-0.1,0-0.2,0-0.2l0.2-0.3
	c1.1-1.4,2-2.4,2-6.5c0-3.3,1.6-4.4,3-5c0.4-0.2,0.8-0.5,0.9-1C7.8,2.1,8.3,1.5,9,1.5s1.2,0.6,1.3,1.2c0.1,0.4,0.5,0.8,0.9,1
	c1.4,0.6,3,1.7,3,5c0,4.1,0.9,5.1,2,6.5l0.2,0.3c0,0.1,0,0.1,0,0.2C16.5,15.7,16.4,15.8,16.3,15.8z"/>
</svg>
